# 3ds Max Wavefront OBJ Exporter v0.97b - (c)2007 guruware
# File Created: 06.06.2018 13:59:21

#
# object Box014
#

v  -68.0559 -50.2123 -30.6081
v  -68.0559 -50.2123 -31.4355
v  -65.2518 -50.2123 -31.4355
v  -65.2518 -50.2123 -30.6081
v  -68.0559 268.7126 -30.6080
v  -65.2518 268.7126 -30.6080
v  -65.2518 268.7126 -31.4355
v  -68.0559 268.7126 -31.4355
v  -69.0123 -50.2123 -31.4355
v  -69.0123 -50.2123 -30.6081
v  -69.0123 268.7126 -30.6080
v  -69.0123 268.7126 -31.4355
v  -68.0559 -50.2123 -27.8301
v  -68.0559 268.7126 -27.8301
v  -69.0123 268.7126 -27.8301
v  -69.0123 -50.2123 -27.8301
v  -68.0559 -50.2123 30.6490
v  -65.2518 -50.2123 30.6490
v  -65.2518 -50.2123 31.4764
v  -68.0559 -50.2123 31.4764
v  -68.0559 268.7126 30.6490
v  -68.0559 268.7126 31.4764
v  -65.2518 268.7126 31.4764
v  -65.2518 268.7126 30.6490
v  -69.0123 -50.2123 31.4764
v  -69.0123 268.7126 31.4764
v  -69.0123 268.7126 30.6490
v  -69.0123 -50.2123 30.6490
v  -68.0559 -50.2123 27.8710
v  -69.0123 -50.2123 27.8710
v  -69.0123 268.7126 27.8710
v  -68.0559 268.7126 27.8710
v  68.0615 -50.2123 30.6490
v  68.0615 -50.2123 31.4764
v  65.2574 -50.2123 31.4764
v  65.2574 -50.2123 30.6490
v  68.0615 268.7126 30.6490
v  65.2574 268.7126 30.6490
v  65.2574 268.7126 31.4764
v  68.0615 268.7126 31.4764
v  69.0179 -50.2123 31.4764
v  69.0179 -50.2123 30.6490
v  69.0179 268.7126 30.6490
v  69.0179 268.7126 31.4764
v  68.0615 -50.2123 27.8710
v  68.0615 268.7126 27.8710
v  69.0179 268.7126 27.8710
v  69.0179 -50.2123 27.8710
v  68.0615 -50.2123 -30.6081
v  65.2574 -50.2123 -30.6081
v  65.2574 -50.2123 -31.4355
v  68.0615 -50.2123 -31.4355
v  68.0615 268.7126 -30.6080
v  68.0615 268.7126 -31.4355
v  65.2574 268.7126 -31.4355
v  65.2574 268.7126 -30.6080
v  69.0179 -50.2123 -31.4355
v  69.0179 268.7126 -31.4355
v  69.0179 268.7126 -30.6080
v  69.0179 -50.2123 -30.6081
v  68.0615 -50.2123 -27.8301
v  69.0179 -50.2123 -27.8301
v  69.0179 268.7126 -27.8301
v  68.0615 268.7126 -27.8301
# 64 vertices

vn 0.0000 -1.0000 -0.0000
vn 0.0000 1.0000 -0.0000
vn 0.0000 -0.0000 1.0000
vn 1.0000 0.0000 -0.0000
vn 0.0000 0.0000 -1.0000
vn -1.0000 0.0000 -0.0000
vn -0.0000 -1.0000 -0.0000
vn 0.0000 -0.0000 -1.0000
vn 0.0000 0.0000 1.0000
vn -0.0000 0.0000 -1.0000
# 10 vertex normals

vt 0.1517 0.8106 0.0000
vt 0.1517 0.8171 0.0000
vt 0.1453 0.8171 0.0000
vt 0.1453 0.8106 0.0000
vt 0.4204 0.4364 0.0000
vt 0.4269 0.4364 0.0000
vt 0.4269 0.4429 0.0000
vt 0.4204 0.4429 0.0000
vt 0.0811 0.0204 0.0000
vt 0.0947 0.0206 0.0000
vt 0.0880 0.7993 0.0000
vt 0.0744 0.7991 0.0000
vt 0.1083 0.0209 0.0000
vt 0.1015 0.7997 0.0000
vt 0.5592 0.0200 0.0000
vt 0.6866 0.0200 0.0000
vt 0.6866 0.1474 0.0000
vt 0.5592 0.1474 0.0000
vt 0.0267 0.0200 0.0000
vt 0.0403 0.0203 0.0000
vt 0.0336 0.7990 0.0000
vt 0.0200 0.7987 0.0000
vt 0.0200 0.8111 0.0000
vt 0.0342 0.8111 0.0000
vt 0.0675 0.0204 0.0000
vt 0.0608 0.7991 0.0000
vt 0.0472 0.7991 0.0000
vt 0.0539 0.0203 0.0000
vt 0.0342 0.8252 0.0000
vt 0.0200 0.8252 0.0000
vt 0.5657 0.2976 0.0000
vt 0.5592 0.2976 0.0000
vt 0.5592 0.3041 0.0000
vt 0.5657 0.3041 0.0000
vt 0.0200 0.8366 0.0000
vt 0.0200 0.8431 0.0000
vt 0.0265 0.8431 0.0000
vt 0.0265 0.8366 0.0000
vt 0.4204 0.0200 0.0000
vt 0.4204 0.1474 0.0000
vt 0.5478 0.1474 0.0000
vt 0.5478 0.0200 0.0000
vt 0.3527 0.0200 0.0000
vt 0.3527 0.7572 0.0000
vt 0.3398 0.7573 0.0000
vt 0.3398 0.0201 0.0000
vt 0.3270 0.7574 0.0000
vt 0.3270 0.0202 0.0000
vt 0.3141 0.0200 0.0000
vt 0.3141 0.7572 0.0000
vt 0.3012 0.7573 0.0000
vt 0.3012 0.0201 0.0000
vt 0.1197 0.8106 0.0000
vt 0.1338 0.8106 0.0000
vt 0.1338 0.8247 0.0000
vt 0.1197 0.8247 0.0000
vt 0.3641 0.0200 0.0000
vt 0.3809 0.0201 0.0000
vt 0.3809 0.9800 0.0000
vt 0.3641 0.9799 0.0000
vt 0.2884 0.7572 0.0000
vt 0.2884 0.0200 0.0000
vt 0.1262 0.8362 0.0000
vt 0.1262 0.8426 0.0000
vt 0.1197 0.8426 0.0000
vt 0.1197 0.8362 0.0000
vt 0.6980 0.0200 0.0000
vt 0.7045 0.0200 0.0000
vt 0.7045 0.0265 0.0000
vt 0.6980 0.0265 0.0000
vt 0.4204 0.2976 0.0000
vt 0.5478 0.2976 0.0000
vt 0.5478 0.4250 0.0000
vt 0.4204 0.4250 0.0000
vt 0.2126 0.0200 0.0000
vt 0.2255 0.0202 0.0000
vt 0.2255 0.7574 0.0000
vt 0.2126 0.7572 0.0000
vt 0.2384 0.0203 0.0000
vt 0.2384 0.7575 0.0000
vt 0.2512 0.0202 0.0000
vt 0.2641 0.0204 0.0000
vt 0.2641 0.7576 0.0000
vt 0.2512 0.7574 0.0000
vt 0.2126 0.7690 0.0000
vt 0.2268 0.7690 0.0000
vt 0.2268 0.7832 0.0000
vt 0.2126 0.7832 0.0000
vt 0.4090 0.0200 0.0000
vt 0.4090 0.9798 0.0000
vt 0.3923 0.9799 0.0000
vt 0.3923 0.0201 0.0000
vt 0.2770 0.0203 0.0000
vt 0.2770 0.7575 0.0000
vt 0.0521 0.8111 0.0000
vt 0.0456 0.8111 0.0000
vt 0.0456 0.8176 0.0000
vt 0.0521 0.8176 0.0000
vt 0.5592 0.1588 0.0000
vt 0.5592 0.1653 0.0000
vt 0.5657 0.1653 0.0000
vt 0.5657 0.1588 0.0000
vt 0.1469 0.0200 0.0000
vt 0.1469 0.7987 0.0000
vt 0.1333 0.7988 0.0000
vt 0.1333 0.0201 0.0000
vt 0.1197 0.7989 0.0000
vt 0.1197 0.0202 0.0000
vt 0.4204 0.1588 0.0000
vt 0.4204 0.2862 0.0000
vt 0.5478 0.2862 0.0000
vt 0.5478 0.1588 0.0000
vt 0.2012 0.0203 0.0000
vt 0.2012 0.7991 0.0000
vt 0.1876 0.7992 0.0000
vt 0.1876 0.0204 0.0000
vt 0.2884 0.7688 0.0000
vt 0.3025 0.7688 0.0000
vt 0.1605 0.0201 0.0000
vt 0.1740 0.0203 0.0000
vt 0.1740 0.7991 0.0000
vt 0.1605 0.7989 0.0000
vt 0.3025 0.7830 0.0000
vt 0.2884 0.7830 0.0000
# 124 texture coords

g Box014
s off
f 1/1/1 2/2/1 3/3/1 
f 3/3/1 4/4/1 1/1/1 
f 5/5/2 6/6/2 7/7/2 
f 7/7/2 8/8/2 5/5/2 
f 1/9/3 4/10/3 6/11/3 
f 6/11/3 5/12/3 1/9/3 
f 4/10/4 3/13/4 7/14/4 
f 7/14/4 6/11/4 4/10/4 
f 3/15/5 2/16/5 8/17/5 
f 8/17/5 7/18/5 3/15/5 
f 9/19/6 10/20/6 11/21/6 
f 11/21/6 12/22/6 9/19/6 
f 2/23/7 1/24/7 10/24/7 
f 10/24/7 9/23/7 2/23/7 
f 13/25/3 14/26/3 15/27/3 
f 15/27/3 16/28/3 13/25/3 
f 5/29/2 8/30/2 12/30/2 
f 12/30/2 11/29/2 5/29/2 
f 8/30/5 2/23/5 9/23/5 
f 9/23/5 12/30/5 8/30/5 
f 1/9/4 5/12/4 14/26/4 
f 14/26/4 13/25/4 1/9/4 
f 5/29/2 11/29/2 15/29/2 
f 15/29/2 14/29/2 5/29/2 
f 11/21/6 10/20/6 16/28/6 
f 16/28/6 15/27/6 11/21/6 
f 10/24/7 1/24/7 13/24/7 
f 13/24/7 16/24/7 10/24/7 
f 17/31/1 18/32/1 19/33/1 
f 19/33/1 20/34/1 17/31/1 
f 21/35/2 22/36/2 23/37/2 
f 23/37/2 24/38/2 21/35/2 
f 17/39/8 21/40/8 24/41/8 
f 24/41/8 18/42/8 17/39/8 
f 18/43/4 24/44/4 23/45/4 
f 23/45/4 19/46/4 18/43/4 
f 19/46/9 23/45/9 22/47/9 
f 22/47/9 20/48/9 19/46/9 
f 25/49/6 26/50/6 27/51/6 
f 27/51/6 28/52/6 25/49/6 
f 20/53/7 25/53/7 28/54/7 
f 28/54/7 17/54/7 20/53/7 
f 29/54/8 30/54/8 31/55/8 
f 31/55/8 32/55/8 29/54/8 
f 21/55/2 27/55/2 26/56/2 
f 26/56/2 22/56/2 21/55/2 
f 22/47/9 26/50/9 25/49/9 
f 25/49/9 20/48/9 22/47/9 
f 17/57/4 29/58/4 32/59/4 
f 32/59/4 21/60/4 17/57/4 
f 21/55/2 32/55/2 31/55/2 
f 31/55/2 27/55/2 21/55/2 
f 27/51/6 31/61/6 30/62/6 
f 30/62/6 28/52/6 27/51/6 
f 28/54/7 30/54/7 29/54/7 
f 29/54/7 17/54/7 28/54/7 
f 33/63/1 34/64/1 35/65/1 
f 35/65/1 36/66/1 33/63/1 
f 37/67/2 38/68/2 39/69/2 
f 39/69/2 40/70/2 37/67/2 
f 33/71/8 36/72/8 38/73/8 
f 38/73/8 37/74/8 33/71/8 
f 36/75/6 35/76/6 39/77/6 
f 39/77/6 38/78/6 36/75/6 
f 35/76/9 34/79/9 40/80/9 
f 40/80/9 39/77/9 35/76/9 
f 41/81/4 42/82/4 43/83/4 
f 43/83/4 44/84/4 41/81/4 
f 34/85/1 33/86/1 42/86/1 
f 42/86/1 41/85/1 34/85/1 
f 45/86/8 46/87/8 47/87/8 
f 47/87/8 48/86/8 45/86/8 
f 37/87/2 40/88/2 44/88/2 
f 44/88/2 43/87/2 37/87/2 
f 40/80/9 34/79/9 41/81/9 
f 41/81/9 44/84/9 40/80/9 
f 33/89/6 37/90/6 46/91/6 
f 46/91/6 45/92/6 33/89/6 
f 37/87/2 43/87/2 47/87/2 
f 47/87/2 46/87/2 37/87/2 
f 43/83/4 42/82/4 48/93/4 
f 48/93/4 47/94/4 43/83/4 
f 42/86/1 33/86/1 45/86/1 
f 45/86/1 48/86/1 42/86/1 
f 49/95/1 50/96/1 51/97/1 
f 51/97/1 52/98/1 49/95/1 
f 53/99/2 54/100/2 55/101/2 
f 55/101/2 56/102/2 53/99/2 
f 49/103/3 53/104/3 56/105/3 
f 56/105/3 50/106/3 49/103/3 
f 50/106/6 56/105/6 55/107/6 
f 55/107/6 51/108/6 50/106/6 
f 51/109/5 55/110/5 54/111/5 
f 54/111/5 52/112/5 51/109/5 
f 57/113/4 58/114/4 59/115/4 
f 59/115/4 60/116/4 57/113/4 
f 52/117/1 57/117/1 60/118/1 
f 60/118/1 49/118/1 52/117/1 
f 61/119/3 62/120/3 63/121/3 
f 63/121/3 64/122/3 61/119/3 
f 53/123/2 59/123/2 58/124/2 
f 58/124/2 54/124/2 53/123/2 
f 54/124/10 58/124/10 57/117/10 
f 57/117/10 52/117/10 54/124/10 
f 49/103/6 61/119/6 64/122/6 
f 64/122/6 53/104/6 49/103/6 
f 53/123/2 64/123/2 63/123/2 
f 63/123/2 59/123/2 53/123/2 
f 59/115/4 63/121/4 62/120/4 
f 62/120/4 60/116/4 59/115/4 
f 60/118/1 62/118/1 61/118/1 
f 61/118/1 49/118/1 60/118/1 
# 112 faces

#
# object Box007
#

v  -68.0399 264.5968 30.5718
v  -68.0399 264.5968 -30.6588
v  68.0281 264.5968 -30.6588
v  68.0281 264.5968 30.5718
v  -68.0399 268.0324 30.5718
v  68.0281 268.0324 30.5718
v  68.0281 268.0324 -30.6588
v  -68.0399 268.0324 -30.6588
v  -68.0399 203.9323 30.5718
v  -68.0399 203.9323 -30.6588
v  68.0281 203.9323 -30.6588
v  68.0281 203.9323 30.5718
v  -68.0399 207.3679 30.5718
v  68.0281 207.3679 30.5718
v  68.0281 207.3679 -30.6588
v  -68.0399 207.3679 -30.6588
v  -68.0399 142.8269 30.5718
v  -68.0399 142.8269 -30.6588
v  68.0281 142.8269 -30.6588
v  68.0281 142.8269 30.5718
v  -68.0399 146.2625 30.5718
v  68.0281 146.2625 30.5718
v  68.0281 146.2625 -30.6588
v  -68.0399 146.2625 -30.6588
v  -68.0399 81.3783 30.5718
v  -68.0399 81.3783 -30.6588
v  68.0281 81.3783 -30.6588
v  68.0281 81.3783 30.5718
v  -68.0399 84.8139 30.5718
v  68.0281 84.8139 30.5718
v  68.0281 84.8139 -30.6588
v  -68.0399 84.8139 -30.6588
v  -68.0399 19.4880 30.5718
v  -68.0399 19.4880 -30.6588
v  68.0281 19.4880 -30.6588
v  68.0281 19.4880 30.5718
v  -68.0399 22.9236 30.5718
v  68.0281 22.9236 30.5718
v  68.0281 22.9236 -30.6588
v  -68.0399 22.9236 -30.6588
v  -68.0399 -34.7444 30.5718
v  -68.0399 -34.7444 -30.6588
v  68.0281 -34.7444 -30.6588
v  68.0281 -34.7444 30.5718
v  -68.0399 -31.3088 30.5718
v  68.0281 -31.3088 30.5718
v  68.0281 -31.3088 -30.6588
v  -68.0399 -31.3088 -30.6588
# 48 vertices

vn 0.0000 -1.0000 -0.0000
vn 0.0000 1.0000 -0.0000
vn 0.0000 0.0000 1.0000
vn 1.0000 0.0000 -0.0000
vn 0.0000 0.0000 -1.0000
vn -1.0000 0.0000 -0.0000
# 6 vertex normals

vt 0.3624 0.3297 0.0000
vt 0.3624 0.1826 0.0000
vt 0.6892 0.1826 0.0000
vt 0.6892 0.3297 0.0000
vt 0.0200 0.0200 0.0000
vt 0.3469 0.0200 0.0000
vt 0.3469 0.1671 0.0000
vt 0.0200 0.1671 0.0000
vt 0.7047 0.8532 0.0000
vt 0.9776 0.8532 0.0000
vt 0.9776 0.8579 0.0000
vt 0.7047 0.8579 0.0000
vt 0.7047 0.0605 0.0000
vt 0.8518 0.0605 0.0000
vt 0.8518 0.0645 0.0000
vt 0.7047 0.0645 0.0000
vt 0.9776 0.3702 0.0000
vt 0.7047 0.3702 0.0000
vt 0.7047 0.3654 0.0000
vt 0.9776 0.3654 0.0000
vt 0.8518 0.7148 0.0000
vt 0.7047 0.7148 0.0000
vt 0.7047 0.7108 0.0000
vt 0.8518 0.7108 0.0000
vt 0.3624 0.8174 0.0000
vt 0.3624 0.6703 0.0000
vt 0.6892 0.6703 0.0000
vt 0.6892 0.8174 0.0000
vt 0.3624 0.8329 0.0000
vt 0.6892 0.8329 0.0000
vt 0.6892 0.9800 0.0000
vt 0.3624 0.9800 0.0000
vt 0.7047 0.3452 0.0000
vt 0.9776 0.3452 0.0000
vt 0.9776 0.3499 0.0000
vt 0.7047 0.3499 0.0000
vt 0.7047 0.8929 0.0000
vt 0.8518 0.8929 0.0000
vt 0.8518 0.8968 0.0000
vt 0.7047 0.8968 0.0000
vt 0.9776 0.5125 0.0000
vt 0.7047 0.5125 0.0000
vt 0.7047 0.5077 0.0000
vt 0.9776 0.5077 0.0000
vt 0.8518 0.8774 0.0000
vt 0.7047 0.8774 0.0000
vt 0.7047 0.8734 0.0000
vt 0.8518 0.8734 0.0000
vt 0.3624 0.6548 0.0000
vt 0.3624 0.5077 0.0000
vt 0.6892 0.5077 0.0000
vt 0.6892 0.6548 0.0000
vt 0.0200 0.6703 0.0000
vt 0.3469 0.6703 0.0000
vt 0.3469 0.8174 0.0000
vt 0.0200 0.8174 0.0000
vt 0.7047 0.8329 0.0000
vt 0.9776 0.8329 0.0000
vt 0.9776 0.8377 0.0000
vt 0.7047 0.8377 0.0000
vt 0.7047 0.2425 0.0000
vt 0.8518 0.2425 0.0000
vt 0.8518 0.2465 0.0000
vt 0.7047 0.2465 0.0000
vt 0.9776 0.6751 0.0000
vt 0.7047 0.6751 0.0000
vt 0.7047 0.6703 0.0000
vt 0.9776 0.6703 0.0000
vt 0.8518 0.0839 0.0000
vt 0.7047 0.0839 0.0000
vt 0.7047 0.0800 0.0000
vt 0.8518 0.0800 0.0000
vt 0.3624 0.4923 0.0000
vt 0.3624 0.3452 0.0000
vt 0.6892 0.3452 0.0000
vt 0.6892 0.4923 0.0000
vt 0.3624 0.0200 0.0000
vt 0.6892 0.0200 0.0000
vt 0.6892 0.1671 0.0000
vt 0.3624 0.1671 0.0000
vt 0.7047 0.2028 0.0000
vt 0.9776 0.2028 0.0000
vt 0.9776 0.2076 0.0000
vt 0.7047 0.2076 0.0000
vt 0.7047 0.3857 0.0000
vt 0.8518 0.3857 0.0000
vt 0.8518 0.3896 0.0000
vt 0.7047 0.3896 0.0000
vt 0.9776 0.1873 0.0000
vt 0.7047 0.1873 0.0000
vt 0.7047 0.1826 0.0000
vt 0.9776 0.1826 0.0000
vt 0.8518 0.5717 0.0000
vt 0.7047 0.5717 0.0000
vt 0.7047 0.5677 0.0000
vt 0.8518 0.5677 0.0000
vt 0.0200 0.9800 0.0000
vt 0.0200 0.8329 0.0000
vt 0.3469 0.8329 0.0000
vt 0.3469 0.9800 0.0000
vt 0.0200 0.3452 0.0000
vt 0.3469 0.3452 0.0000
vt 0.3469 0.4923 0.0000
vt 0.0200 0.4923 0.0000
vt 0.7047 0.0200 0.0000
vt 0.9776 0.0200 0.0000
vt 0.9776 0.0248 0.0000
vt 0.7047 0.0248 0.0000
vt 0.7047 0.7303 0.0000
vt 0.8518 0.7303 0.0000
vt 0.8518 0.7343 0.0000
vt 0.7047 0.7343 0.0000
vt 0.9776 0.0450 0.0000
vt 0.7047 0.0450 0.0000
vt 0.7047 0.0402 0.0000
vt 0.9776 0.0402 0.0000
vt 0.8518 0.2271 0.0000
vt 0.7047 0.2271 0.0000
vt 0.7047 0.2231 0.0000
vt 0.8518 0.2231 0.0000
vt 0.0200 0.6548 0.0000
vt 0.0200 0.5077 0.0000
vt 0.3469 0.5077 0.0000
vt 0.3469 0.6548 0.0000
vt 0.0200 0.1826 0.0000
vt 0.3469 0.1826 0.0000
vt 0.3469 0.3297 0.0000
vt 0.0200 0.3297 0.0000
vt 0.7047 0.5280 0.0000
vt 0.9776 0.5280 0.0000
vt 0.9776 0.5328 0.0000
vt 0.7047 0.5328 0.0000
vt 0.7047 0.4051 0.0000
vt 0.8518 0.4051 0.0000
vt 0.8518 0.4091 0.0000
vt 0.7047 0.4091 0.0000
vt 0.9776 0.6953 0.0000
vt 0.7047 0.6953 0.0000
vt 0.7047 0.6906 0.0000
vt 0.9776 0.6906 0.0000
vt 0.8518 0.5522 0.0000
vt 0.7047 0.5522 0.0000
vt 0.7047 0.5482 0.0000
vt 0.8518 0.5482 0.0000
# 144 texture coords

g Box007
s off
f 65/125/11 66/126/11 67/127/11 
f 67/127/11 68/128/11 65/125/11 
f 69/129/12 70/130/12 71/131/12 
f 71/131/12 72/132/12 69/129/12 
f 65/133/13 68/134/13 70/135/13 
f 70/135/13 69/136/13 65/133/13 
f 68/137/14 67/138/14 71/139/14 
f 71/139/14 70/140/14 68/137/14 
f 67/141/15 66/142/15 72/143/15 
f 72/143/15 71/144/15 67/141/15 
f 66/145/16 65/146/16 69/147/16 
f 69/147/16 72/148/16 66/145/16 
f 73/149/11 74/150/11 75/151/11 
f 75/151/11 76/152/11 73/149/11 
f 77/153/12 78/154/12 79/155/12 
f 79/155/12 80/156/12 77/153/12 
f 73/157/13 76/158/13 78/159/13 
f 78/159/13 77/160/13 73/157/13 
f 76/161/14 75/162/14 79/163/14 
f 79/163/14 78/164/14 76/161/14 
f 75/165/15 74/166/15 80/167/15 
f 80/167/15 79/168/15 75/165/15 
f 74/169/16 73/170/16 77/171/16 
f 77/171/16 80/172/16 74/169/16 
f 81/173/11 82/174/11 83/175/11 
f 83/175/11 84/176/11 81/173/11 
f 85/177/12 86/178/12 87/179/12 
f 87/179/12 88/180/12 85/177/12 
f 81/181/13 84/182/13 86/183/13 
f 86/183/13 85/184/13 81/181/13 
f 84/185/14 83/186/14 87/187/14 
f 87/187/14 86/188/14 84/185/14 
f 83/189/15 82/190/15 88/191/15 
f 88/191/15 87/192/15 83/189/15 
f 82/193/16 81/194/16 85/195/16 
f 85/195/16 88/196/16 82/193/16 
f 89/197/11 90/198/11 91/199/11 
f 91/199/11 92/200/11 89/197/11 
f 93/201/12 94/202/12 95/203/12 
f 95/203/12 96/204/12 93/201/12 
f 89/205/13 92/206/13 94/207/13 
f 94/207/13 93/208/13 89/205/13 
f 92/209/14 91/210/14 95/211/14 
f 95/211/14 94/212/14 92/209/14 
f 91/213/15 90/214/15 96/215/15 
f 96/215/15 95/216/15 91/213/15 
f 90/217/16 89/218/16 93/219/16 
f 93/219/16 96/220/16 90/217/16 
f 97/221/11 98/222/11 99/223/11 
f 99/223/11 100/224/11 97/221/11 
f 101/225/12 102/226/12 103/227/12 
f 103/227/12 104/228/12 101/225/12 
f 97/229/13 100/230/13 102/231/13 
f 102/231/13 101/232/13 97/229/13 
f 100/233/14 99/234/14 103/235/14 
f 103/235/14 102/236/14 100/233/14 
f 99/237/15 98/238/15 104/239/15 
f 104/239/15 103/240/15 99/237/15 
f 98/241/16 97/242/16 101/243/16 
f 101/243/16 104/244/16 98/241/16 
f 105/245/11 106/246/11 107/247/11 
f 107/247/11 108/248/11 105/245/11 
f 109/249/12 110/250/12 111/251/12 
f 111/251/12 112/252/12 109/249/12 
f 105/253/13 108/254/13 110/255/13 
f 110/255/13 109/256/13 105/253/13 
f 108/257/14 107/258/14 111/259/14 
f 111/259/14 110/260/14 108/257/14 
f 107/261/15 106/262/15 112/263/15 
f 112/263/15 111/264/15 107/261/15 
f 106/265/16 105/266/16 109/267/16 
f 109/267/16 112/268/16 106/265/16 
# 72 faces

