# 3ds Max Wavefront OBJ Exporter v0.97b - (c)2007 guruware
# File Created: 01.06.2018 15:21:42

mtllib BOX_lp.mtl

#
# object Box001
#

v  -22.5352 0.0000 36.6588
v  41.8854 0.0000 -38.2421
v  41.8854 0.0000 36.6588
v  -21.1458 2.3965 35.2904
v  40.4961 2.3965 -36.8736
v  -21.1458 2.3965 -36.8736
v  41.8854 47.6528 36.6588
v  18.7906 42.3361 36.6588
v  20.2280 42.1277 36.6588
v  41.8854 47.6528 -38.2421
v  18.7906 42.3361 -38.2421
v  20.2280 42.1277 -38.2421
v  -22.5352 0.0000 -38.2421
v  -22.5352 47.6528 36.6588
v  -22.5352 47.6528 -38.2421
v  40.4961 47.6528 -36.8736
v  18.7906 42.3361 35.2904
v  40.4961 47.6528 35.2904
v  20.2280 42.1277 35.2904
v  40.4961 2.3965 35.2904
v  18.7906 42.3361 -36.8736
v  20.2280 42.1277 -36.8736
v  -21.1458 47.6528 -36.8736
v  -1.7473 41.5027 36.6588
v  -2.0348 40.4610 35.2904
v  -1.7473 41.5027 35.2904
v  -2.0348 40.4610 36.6588
v  -2.0348 38.3635 35.2904
v  -2.0348 38.3635 36.6588
v  -1.7473 37.3218 35.2904
v  -1.7473 37.3218 36.6588
v  -0.8849 36.6968 35.2904
v  -0.8849 36.6968 36.6588
v  0.5525 36.4885 35.2904
v  18.7906 36.4885 36.6588
v  18.7906 36.4885 35.2904
v  20.2280 36.6968 35.2904
v  21.0904 37.3218 36.6588
v  21.0904 37.3218 35.2904
v  21.3779 38.3635 36.6588
v  21.3779 38.3635 35.2904
v  21.3779 40.4610 36.6588
v  21.3779 40.4610 35.2904
v  21.0904 41.5027 36.6588
v  21.0904 41.5027 35.2904
v  0.5525 42.3361 36.6588
v  0.5525 42.3361 35.2904
v  -0.8849 42.1277 35.2904
v  -0.8849 42.1277 36.6588
v  -2.0348 40.4610 -36.8736
v  -2.0348 38.3635 -38.2421
v  -2.0348 40.4610 -38.2421
v  -2.0348 38.3635 -36.8736
v  -1.7473 37.3218 -38.2421
v  -1.7473 37.3218 -36.8736
v  -0.8849 36.6968 -38.2421
v  -0.8849 36.6968 -36.8736
v  0.5525 36.4885 -38.2421
v  18.7906 36.4885 -36.8736
v  18.7906 36.4885 -38.2421
v  20.2280 36.6968 -36.8736
v  20.2280 36.6968 -38.2421
v  21.0904 37.3218 -38.2421
v  21.3779 38.3635 -36.8736
v  21.3779 38.3635 -38.2421
v  21.3779 40.4610 -36.8736
v  21.3779 40.4610 -38.2421
v  21.0904 41.5027 -38.2421
v  0.5525 42.3361 -36.8736
v  0.5525 42.3361 -38.2421
v  -0.8849 42.1277 -38.2421
v  -0.8849 42.1277 -36.8736
v  -1.7473 41.5027 -38.2421
v  -1.7473 41.5027 -36.8736
v  0.5525 36.4885 36.6588
v  20.2280 36.6968 36.6588
v  -21.1458 47.6528 35.2904
v  0.5525 36.4885 -36.8736
v  21.0904 37.3218 -36.8736
v  21.0904 41.5027 -36.8736
# 80 vertices

vn 0.0000 -1.0000 -0.0000
vn 0.0000 1.0000 -0.0000
vn 0.0000 0.0000 1.0000
vn 1.0000 0.0000 -0.0000
vn 0.0000 0.0000 -1.0000
vn -1.0000 0.0000 -0.0000
vn 0.9566 -0.2915 -0.0000
vn 0.9891 -0.1474 -0.0000
vn 0.9891 0.1474 0.0000
vn 0.9566 0.2915 0.0000
vn 0.5487 0.8360 -0.0000
vn 0.1301 0.9915 -0.0000
vn 0.0652 0.9979 -0.0000
vn -0.0652 0.9979 -0.0000
vn -0.1301 0.9915 -0.0000
vn -0.5487 0.8360 -0.0000
vn -0.9566 0.2915 0.0000
vn -0.9891 0.1474 0.0000
vn -0.9891 -0.1474 -0.0000
vn -0.9566 -0.2915 -0.0000
vn -0.5487 -0.8360 -0.0000
vn -0.1301 -0.9915 -0.0000
vn -0.0652 -0.9979 -0.0000
vn 0.0652 -0.9979 -0.0000
vn 0.1301 -0.9915 -0.0000
vn 0.5487 -0.8360 -0.0000
vn 0.9891 0.1474 -0.0000
vn 0.9566 0.2915 -0.0000
vn -0.9566 0.2915 -0.0000
vn -0.9891 0.1474 -0.0000
# 30 vertex normals

vt 0.0200 0.3197 0.0000
vt 0.3556 0.6040 0.0000
vt 0.0200 0.6040 0.0000
vt 0.3710 0.2921 0.0000
vt 0.6944 0.0200 0.0000
vt 0.6944 0.2921 0.0000
vt 0.3214 0.8187 0.0000
vt 0.2169 0.7967 0.0000
vt 0.2265 0.7955 0.0000
vt 0.3710 0.3197 0.0000
vt 0.7066 0.5101 0.0000
vt 0.3710 0.5101 0.0000
vt 0.8777 0.7523 0.0000
vt 0.9800 0.7313 0.0000
vt 0.8841 0.7528 0.0000
vt 0.7066 0.7160 0.0000
vt 0.3710 0.5255 0.0000
vt 0.7066 0.5255 0.0000
vt 0.3495 0.0261 0.0000
vt 0.0200 0.0200 0.0000
vt 0.3557 0.0200 0.0000
vt 0.1457 0.0470 0.0000
vt 0.0516 0.1567 0.0000
vt 0.6635 0.9284 0.0000
vt 0.5649 0.9065 0.0000
vt 0.5752 0.9052 0.0000
vt 0.0516 0.1413 0.0000
vt 0.1139 0.0715 -0.8035
vt 0.1213 0.0684 -0.8035
vt 0.1212 0.0738 -0.8035
vt 0.1167 0.0661 0.8035
vt 0.1228 0.0646 -0.8035
vt 0.1215 0.0615 -0.8035
vt 0.1235 0.0646 -0.8035
vt 0.1245 0.0623 -0.8035
vt 0.1241 0.0661 -0.8035
vt 0.1262 0.0650 -0.8035
vt 0.1256 0.0677 -0.8035
vt 0.1062 0.0477 -0.8035
vt 0.1047 0.0470 -0.8035
vt 0.1020 0.0527 -0.8035
vt 0.1136 0.0577 -0.8035
vt 0.1024 0.0623 -0.8035
vt 0.1194 0.0661 0.6369
vt 0.1033 0.0730 -0.8035
vt 0.1292 0.0945 -0.8035
vt 0.1109 0.0998 -0.8035
vt 0.1303 0.1090 -0.8035
vt 0.1158 0.1128 -0.8035
vt 0.1291 0.1190 -0.8035
vt 0.1206 0.1213 -0.8035
vt 0.1262 0.1259 -0.8035
vt 0.1250 0.1259 -0.8035
vt 0.1131 0.0876 -0.8035
vt 0.1183 0.0876 -0.8035
vt 0.1201 0.0799 -0.8035
vt 0.1123 0.0784 -0.8035
vt 0.0654 0.0560 0.8033
vt 0.0566 0.0897 -0.8033
vt 0.0516 0.0638 -0.8033
vt 0.0760 0.0845 -0.8033
vt 0.0588 0.1052 -0.8033
vt 0.0766 0.1026 -0.8033
vt 0.0635 0.1182 -0.8033
vt 0.0746 0.1156 -0.8033
vt 0.0716 0.1259 -0.8033
vt 0.0833 0.0515 -0.8033
vt 0.0867 0.0515 -0.8033
vt 0.0835 0.0509 -0.8033
vt 0.0827 0.0470 -0.8033
vt 0.0767 0.0483 -0.8033
vt 0.0763 0.0599 -0.8033
vt 0.0699 0.0554 0.6368
vt 0.0693 0.0664 -0.8033
vt 0.0662 0.0612 -0.8033
vt 0.0644 0.0612 -0.8033
vt 0.0599 0.0612 -0.8033
vt 0.0617 0.0586 -0.8033
vt 0.0579 0.0599 -0.8033
vt 0.0589 0.0586 -0.8033
vt 0.0551 0.0547 -0.8033
vt 0.0545 0.0541 -0.8033
vt 0.0530 0.0547 -0.8033
vt 0.0518 0.0573 -0.8033
vt 0.0576 0.0547 -0.8033
vt 0.3556 0.3197 0.0000
vt 0.3710 0.0200 0.0000
vt 0.0353 0.6193 0.0000
vt 0.1160 0.7952 0.0000
vt 0.0200 0.8187 0.0000
vt 0.1152 0.7879 0.0000
vt 0.1155 0.7852 0.0000
vt 0.3340 0.6502 0.0000
vt 0.1638 0.7603 0.0000
vt 0.1689 0.7609 0.0000
vt 0.2353 0.7684 0.0000
vt 0.2389 0.7715 0.0000
vt 0.2441 0.7777 0.0000
vt 0.2418 0.7812 0.0000
vt 0.2381 0.7888 0.0000
vt 0.1175 0.7977 0.0000
vt 0.2336 0.7929 0.0000
vt 0.1219 0.7985 0.0000
vt 0.1291 0.7976 0.0000
vt 0.7066 0.3197 0.0000
vt 0.7848 0.7600 0.0000
vt 0.6946 0.9215 0.0000
vt 0.6944 0.7313 0.0000
vt 0.7846 0.7685 0.0000
vt 0.7857 0.7728 0.0000
vt 0.9777 0.9209 0.0000
vt 0.7918 0.7725 0.0000
vt 0.7985 0.7729 0.0000
vt 0.8784 0.7744 0.0000
vt 0.8845 0.7738 0.0000
vt 0.8879 0.7707 0.0000
vt 0.8892 0.7669 0.0000
vt 0.8893 0.7589 0.0000
vt 0.7862 0.7559 0.0000
vt 0.8880 0.7550 0.0000
vt 0.7902 0.7534 0.0000
vt 0.7967 0.7525 0.0000
vt 0.3710 0.7160 0.0000
vt 0.0261 0.0261 0.0000
vt 0.0200 0.3043 0.0000
vt 0.0261 0.2982 0.0000
vt 0.3556 0.3043 0.0000
vt 0.3495 0.2982 0.0000
vt 0.3932 0.7313 0.0000
vt 0.4655 0.9109 0.0000
vt 0.3710 0.9284 0.0000
vt 0.4611 0.8974 0.0000
vt 0.4605 0.8915 0.0000
vt 0.4609 0.8900 0.0000
vt 0.6791 0.7748 0.0000
vt 0.5211 0.8634 0.0000
vt 0.5253 0.8650 0.0000
vt 0.5871 0.8760 0.0000
vt 0.5902 0.8802 0.0000
vt 0.5955 0.8875 0.0000
vt 0.5924 0.8909 0.0000
vt 0.5881 0.8984 0.0000
vt 0.5828 0.9024 0.0000
vt 0.4692 0.9104 0.0000
vt 0.4759 0.9082 0.0000
vt 0.1257 0.0677 -0.8035
vt 0.1094 0.0512 -0.8035
vt 0.0722 0.1234 -0.8033
vt 0.0812 0.0541 -0.8033
vt 0.0635 0.0664 -0.8033
# 150 texture coords

g Box001
usemtl wire_228214153
s 2
f 1/1/1 2/2/1 3/3/1 
s 4
f 4/4/2 5/5/2 6/6/2 
s 8
f 7/7/3 8/8/3 9/9/3 
s 16
f 3/10/4 10/11/4 7/12/4 
s 32
f 11/13/5 10/14/5 12/15/5 
s 64
f 13/16/6 14/17/6 15/18/6 
s off
f 16/19/2 7/20/2 10/21/2 
f 17/22/5 18/22/5 19/22/5 
f 18/23/6 5/23/6 20/23/6 
f 16/24/3 21/25/3 22/26/3 
f 23/27/4 4/27/4 6/27/4 
s 1
f 24/28/7 25/29/8 26/30/7 
f 27/31/8 28/32/9 25/29/8 
f 29/33/9 30/34/10 28/32/9 
s 4
f 31/35/11 32/36/11 30/34/11 
s 1
f 33/37/12 34/38/13 32/36/12 
f 34/38/13 35/39/14 36/40/14 
f 35/39/14 37/41/15 36/40/14 
s 4
f 37/41/16 38/42/16 39/43/16 
s 1
f 39/43/17 40/44/18 41/45/18 
f 41/45/18 42/46/19 43/47/19 
f 43/47/19 44/48/20 45/49/20 
s 4
f 45/49/21 9/50/21 19/51/21 
s 1
f 19/51/22 8/52/23 17/53/23 
f 17/53/23 46/54/24 47/55/24 
f 46/54/24 48/56/25 47/55/24 
s 2
f 49/57/26 26/30/26 48/56/26 
s 1
f 50/58/8 51/59/27 52/60/8 
f 53/61/27 54/62/28 51/59/27 
s 4
f 55/63/11 56/64/11 54/62/11 
s 1
f 57/65/12 58/66/13 56/64/12 
f 58/66/13 59/67/14 60/68/14 
f 60/68/14 61/69/15 62/70/15 
s 4
f 61/69/16 63/71/16 62/70/16 
s 1
f 63/71/29 64/72/30 65/73/30 
f 65/73/30 66/74/19 67/75/19 
f 66/74/19 68/76/20 67/75/19 
s 4
f 68/76/21 22/77/21 12/78/21 
s 1
f 12/78/22 21/79/23 11/80/23 
f 11/80/23 69/81/24 70/82/24 
f 69/81/24 71/83/25 70/82/24 
s 2
f 72/81/26 73/84/26 71/83/26 
s 1
f 74/85/7 52/60/8 73/84/7 
s 2
f 2/2/1 1/1/1 13/86/1 
s 4
f 5/5/2 4/4/2 20/87/2 
s 8
f 1/88/3 27/89/3 14/90/3 
f 1/88/3 29/91/3 27/89/3 
f 1/88/3 31/92/3 29/91/3 
f 3/93/3 31/92/3 1/88/3 
f 3/93/3 33/94/3 31/92/3 
f 3/93/3 75/95/3 33/94/3 
f 3/93/3 35/96/3 75/95/3 
f 3/93/3 76/97/3 35/96/3 
f 7/7/3 76/97/3 3/93/3 
f 7/7/3 38/98/3 76/97/3 
f 7/7/3 40/99/3 38/98/3 
f 7/7/3 42/100/3 40/99/3 
f 24/101/3 14/90/3 27/89/3 
f 7/7/3 44/102/3 42/100/3 
f 49/103/3 14/90/3 24/101/3 
f 7/7/3 9/9/3 44/102/3 
f 46/104/3 14/90/3 49/103/3 
f 46/104/3 7/7/3 14/90/3 
f 8/8/3 7/7/3 46/104/3 
s 16
f 10/11/4 3/10/4 2/105/4 
s 32
f 52/106/5 13/107/5 15/108/5 
f 51/109/5 13/107/5 52/106/5 
f 54/110/5 13/107/5 51/109/5 
f 54/110/5 2/111/5 13/107/5 
f 56/112/5 2/111/5 54/110/5 
f 58/113/5 2/111/5 56/112/5 
f 60/114/5 2/111/5 58/113/5 
f 62/115/5 2/111/5 60/114/5 
f 62/115/5 10/14/5 2/111/5 
f 63/116/5 10/14/5 62/115/5 
f 65/117/5 10/14/5 63/116/5 
f 67/118/5 10/14/5 65/117/5 
f 15/108/5 73/119/5 52/106/5 
f 68/120/5 10/14/5 67/118/5 
f 15/108/5 71/121/5 73/119/5 
f 12/15/5 10/14/5 68/120/5 
f 15/108/5 70/122/5 71/121/5 
f 10/14/5 70/122/5 15/108/5 
f 10/14/5 11/13/5 70/122/5 
s 64
f 14/17/6 13/16/6 1/123/6 
s off
f 18/124/2 14/125/2 7/20/2 
f 77/126/2 14/125/2 18/124/2 
f 77/126/2 15/127/2 14/125/2 
f 23/128/2 15/127/2 77/126/2 
f 23/128/2 10/21/2 15/127/2 
f 16/19/2 10/21/2 23/128/2 
f 7/20/2 16/19/2 18/124/2 
f 26/22/5 4/22/5 77/22/5 
f 25/22/5 4/22/5 26/22/5 
f 28/22/5 4/22/5 25/22/5 
f 30/22/5 4/22/5 28/22/5 
f 30/22/5 20/22/5 4/22/5 
f 32/22/5 20/22/5 30/22/5 
f 34/22/5 20/22/5 32/22/5 
f 36/22/5 20/22/5 34/22/5 
f 37/22/5 20/22/5 36/22/5 
f 37/22/5 18/22/5 20/22/5 
f 39/22/5 18/22/5 37/22/5 
f 41/22/5 18/22/5 39/22/5 
f 43/22/5 18/22/5 41/22/5 
f 45/22/5 18/22/5 43/22/5 
f 77/22/5 48/22/5 26/22/5 
f 19/22/5 18/22/5 45/22/5 
f 77/22/5 47/22/5 48/22/5 
f 18/22/5 47/22/5 77/22/5 
f 18/22/5 17/22/5 47/22/5 
f 5/23/6 18/23/6 16/23/6 
f 6/129/3 74/130/3 23/131/3 
f 6/129/3 50/132/3 74/130/3 
f 6/129/3 53/133/3 50/132/3 
f 6/129/3 55/134/3 53/133/3 
f 5/135/3 55/134/3 6/129/3 
f 5/135/3 57/136/3 55/134/3 
f 5/135/3 78/137/3 57/136/3 
f 5/135/3 59/138/3 78/137/3 
f 5/135/3 61/139/3 59/138/3 
f 16/24/3 61/139/3 5/135/3 
f 16/24/3 79/140/3 61/139/3 
f 16/24/3 64/141/3 79/140/3 
f 16/24/3 66/142/3 64/141/3 
f 16/24/3 80/143/3 66/142/3 
f 72/144/3 23/131/3 74/130/3 
f 16/24/3 22/26/3 80/143/3 
f 69/145/3 23/131/3 72/144/3 
f 69/145/3 16/24/3 23/131/3 
f 21/25/3 16/24/3 69/145/3 
f 4/27/4 23/27/4 77/27/4 
s 1
f 25/29/8 24/28/7 27/31/8 
f 28/32/9 27/31/8 29/33/9 
f 30/34/10 29/33/9 31/35/28 
s 4
f 32/36/11 31/35/11 33/37/11 
s 1
f 34/38/13 33/37/12 75/146/13 
f 35/39/14 34/38/13 75/146/13 
f 37/41/15 35/39/14 76/147/15 
s 4
f 38/42/16 37/41/16 76/147/16 
s 1
f 40/44/18 39/43/17 38/42/29 
f 42/46/19 41/45/18 40/44/18 
f 44/48/20 43/47/19 42/46/19 
s 4
f 9/50/21 45/49/21 44/48/21 
s 1
f 8/52/23 19/51/22 9/50/22 
f 46/54/24 17/53/23 8/52/23 
f 48/56/25 46/54/24 49/57/25 
s 2
f 26/30/26 49/57/26 24/28/26 
s 1
f 51/59/27 50/58/8 53/61/27 
f 54/62/28 53/61/27 55/63/28 
s 4
f 56/64/11 55/63/11 57/65/11 
s 1
f 58/66/13 57/65/12 78/148/13 
f 59/67/14 58/66/13 78/148/13 
f 61/69/15 60/68/14 59/67/14 
s 4
f 63/71/16 61/69/16 79/149/16 
s 1
f 64/72/30 63/71/29 79/149/29 
f 66/74/19 65/73/30 64/72/30 
f 68/76/20 66/74/19 80/150/20 
s 4
f 22/77/21 68/76/21 80/150/21 
s 1
f 21/79/23 12/78/22 22/77/22 
f 69/81/24 11/80/23 21/79/23 
f 71/83/25 69/81/24 72/81/25 
s 2
f 73/84/26 72/81/26 74/85/26 
s 1
f 52/60/8 74/85/7 50/58/8 
# 164 faces

#
# object Plane001
#

v  -21.0991 33.1157 35.4131
v  -5.6662 33.0728 35.4131
v  -5.6662 29.2485 17.3146
v  -21.0991 32.4729 17.3146
v  9.7667 29.2485 35.4131
v  9.7667 29.2485 17.3146
v  25.1996 30.8646 35.4131
v  25.1996 29.2485 17.3146
v  40.6325 33.1004 35.4131
v  40.6325 32.4385 17.3146
v  -5.6662 29.2485 -0.7840
v  -21.0991 32.1272 -0.7840
v  9.7667 34.2314 -0.7840
v  25.1996 29.2485 -0.7840
v  40.6325 33.5908 -0.7840
v  -5.6662 34.7589 -18.8826
v  -21.0991 29.2485 -18.8826
v  9.7667 29.2485 -18.8826
v  25.1996 36.0996 -18.8826
v  40.6325 29.2485 -18.8826
v  -5.6662 29.2485 -36.9811
v  -21.0991 36.2221 -36.9811
v  9.7667 32.9115 -36.9811
v  25.1996 29.2485 -36.9811
v  40.6325 36.3444 -36.9811
# 25 vertices

vn 0.0941 0.9870 -0.1307
vn 0.0676 0.9861 -0.1519
vn 0.0443 0.9981 -0.0429
vn 0.1997 0.9796 -0.0217
vn 0.0926 0.9954 -0.0248
vn 0.0636 0.9956 0.0684
vn -0.1372 0.9878 -0.0739
vn -0.1211 0.9924 -0.0233
vn -0.1433 0.9890 -0.0362
vn -0.1892 0.9819 -0.0009
vn 0.0104 0.9977 0.0664
vn 0.0636 0.9972 0.0385
vn -0.0511 0.9972 0.0539
vn 0.0553 0.9898 0.1311
vn -0.2537 0.9624 -0.0972
vn -0.0059 1.0000 0.0062
vn -0.1676 0.9831 -0.0735
vn -0.0349 0.9989 -0.0312
vn -0.0165 0.9997 0.0175
vn 0.2455 0.9453 0.2150
vn -0.0728 0.9911 -0.1112
vn 0.3885 0.8598 0.3313
vn 0.1294 0.9899 0.0582
vn -0.2296 0.9546 -0.1900
vn -0.0489 0.9984 -0.0282
# 25 vertex normals

vt 0.0000 0.0000 0.5450
vt 0.2500 0.0000 0.5390
vt 0.2500 0.2500 0.0000
vt 0.0000 0.2500 0.4544
vt 0.5000 0.0000 0.0000
vt 0.5000 0.2500 0.0000
vt 0.7500 0.0000 0.2278
vt 0.7500 0.2500 0.0000
vt 1.0000 0.0000 0.5428
vt 1.0000 0.2500 0.4496
vt 0.2500 0.5000 0.0000
vt 0.0000 0.5000 0.4057
vt 0.5000 0.5000 0.7022
vt 0.7500 0.5000 0.0000
vt 1.0000 0.5000 0.6119
vt 0.2500 0.7500 0.7766
vt 0.0000 0.7500 0.0000
vt 0.5000 0.7500 0.0000
vt 0.7500 0.7500 0.9655
vt 1.0000 0.7500 0.0000
vt 0.2500 1.0000 0.0000
vt 0.0000 1.0000 0.9828
vt 0.5000 1.0000 0.5162
vt 0.7500 1.0000 0.0000
vt 1.0000 1.0000 1.0000
# 25 texture coords

g Plane001
usemtl wire_153228153
s 1
f 81/151/31 82/152/32 83/153/33 
f 83/153/33 84/154/34 81/151/31 
f 82/152/32 85/155/35 86/156/36 
f 86/156/36 83/153/33 82/152/32 
f 85/155/35 87/157/37 88/158/38 
f 88/158/38 86/156/36 85/155/35 
f 87/157/37 89/159/39 90/160/40 
f 90/160/40 88/158/38 87/157/37 
f 84/154/34 83/153/33 91/161/41 
f 91/161/41 92/162/42 84/154/34 
f 83/153/33 86/156/36 93/163/43 
f 93/163/43 91/161/41 83/153/33 
f 86/156/36 88/158/38 94/164/44 
f 94/164/44 93/163/43 86/156/36 
f 88/158/38 90/160/40 95/165/45 
f 95/165/45 94/164/44 88/158/38 
f 92/162/42 91/161/41 96/166/46 
f 96/166/46 97/167/47 92/162/42 
f 91/161/41 93/163/43 98/168/48 
f 98/168/48 96/166/46 91/161/41 
f 93/163/43 94/164/44 99/169/49 
f 99/169/49 98/168/48 93/163/43 
f 94/164/44 95/165/45 100/170/50 
f 100/170/50 99/169/49 94/164/44 
f 97/167/47 96/166/46 101/171/51 
f 101/171/51 102/172/52 97/167/47 
f 96/166/46 98/168/48 103/173/53 
f 103/173/53 101/171/51 96/166/46 
f 98/168/48 99/169/49 104/174/54 
f 104/174/54 103/173/53 98/168/48 
f 99/169/49 100/170/50 105/175/55 
f 105/175/55 104/174/54 99/169/49 
# 32 faces

